<svg width="24" height="24" viewBox="0 0 24 24" xmlns="http://www.w3.org/2000/svg">
    <g fill="none" fill-rule="evenodd">
        <path d="M0 0h24v24H0z"/>
        <path d="M1.039 21.926a.996.996 0 1 0 1.993 0c0-3.517 2.024-6.63 5.18-8.102a6.928 6.928 0 0 0 7.587-.008 9.093 9.093 0 0 1 2.542 1.77 8.91 8.91 0 0 1 2.627 6.34.996.996 0 1 0 1.993 0 10.89 10.89 0 0 0-3.211-7.75 11.034 11.034 0 0 0-2.362-1.777 6.942 6.942 0 0 0 1.586-4.424A6.983 6.983 0 0 0 12 1a6.983 6.983 0 0 0-6.975 6.975c0 1.674.593 3.211 1.58 4.414a10.895 10.895 0 0 0-5.565 9.537zm10.96-18.933a4.988 4.988 0 0 1 4.982 4.982A4.988 4.988 0 0 1 12 12.958a4.988 4.988 0 0 1-4.982-4.983 4.988 4.988 0 0 1 4.982-4.982z" fill="#55526C" fill-rule="nonzero"/>
    </g>
</svg>
