<svg xmlns="http://www.w3.org/2000/svg" width="18.549" height="18.549" viewBox="0 0 18.549 18.549">
    <g data-name="Group 53003">
        <path data-name="Path 58506" d="M84.276 92.549A12.259 12.259 0 0 1 72 80.273 4.287 4.287 0 0 1 76.291 76h0a1.056 1.056 0 0 1 .917.532L79 79.667a1.226 1.226 0 0 1-.013 1.239l-1.439 2.4h0a7.383 7.383 0 0 0 3.7 3.7h0l2.4-1.439a1.226 1.226 0 0 1 1.239-.013l3.135 1.791a1.056 1.056 0 0 1 .532.917h0a4.3 4.3 0 0 1-4.273 4.291z" transform="translate(-71 -75)" style="fill:none;stroke:#40403f;stroke-linecap:round;stroke-linejoin:round;stroke-width:2px"/>
    </g>
</svg>
