<svg xmlns="http://www.w3.org/2000/svg" width="21.798" height="16.573" viewBox="0 0 21.798 16.573">
    <g data-name="Group 52628" transform="translate(-7.95 -21.692)">
        <path data-name="Path 56837" d="M22.882 45.767h-7.025a.257.257 0 1 1 0-.515h7.025a.257.257 0 0 1 0 .515zm2.65 3.628h-9.675a.257.257 0 1 1 0-.515h9.676a.257.257 0 0 1 0 .515zm-1-5.481h-8.675a.257.257 0 1 1 0-.515h8.672a.257.257 0 0 1 0 .515z" transform="translate(-5.496 -15.935)" style="fill:#17457a;stroke:#17457a;stroke-width:.5px"/>
        <circle data-name="Ellipse 152" cx="1.055" cy="1.055" r="1.055" transform="translate(21.247 32.766)" style="fill:#17457a;stroke:#17457a;stroke-width:.5px"/>
        <circle data-name="Ellipse 153" cx="1.055" cy="1.055" r="1.055" transform="translate(22.893 32.766)" style="fill:#17457a;stroke:#17457a;stroke-width:.5px"/>
        <path data-name="Path 56838" d="M20.243 52.26h-4.014a.129.129 0 1 1 0-.257h3.989a.122.122 0 0 1 .129.129.118.118 0 0 1-.104.128zm9.6-5.584h-1.39a.637.637 0 0 1-.643-.643v-1.39a.637.637 0 0 1 .642-.643h1.39a.637.637 0 0 1 .643.643v1.39a.622.622 0 0 1-.644.643zm-1.39-2.445a.4.4 0 0 0-.386.386v1.39a.4.4 0 0 0 .386.386h1.39a.4.4 0 0 0 .386-.386v-1.39a.4.4 0 0 0-.386-.386z" transform="translate(-5.867 -16.38)" style="fill:#17457a;stroke:#17457a;stroke-width:.5px"/>
        <path data-name="Path 56839" d="m29.481 31.968-1.029-8.363a1.9 1.9 0 0 0-2.11-1.647l-14.771 1.827a1.772 1.772 0 0 0-1.261.721 1.884 1.884 0 0 0-.386 1.312A1.879 1.879 0 0 0 8.2 27.7v8.415a1.9 1.9 0 0 0 1.9 1.9h14.878a1.9 1.9 0 0 0 1.9-1.9v-1.93l.978-.129a1.818 1.818 0 0 0 1.625-2.088zm-3.139 4.194a1.384 1.384 0 0 1-1.39 1.39H10.078a1.384 1.384 0 0 1-1.39-1.39v-8.44a1.384 1.384 0 0 1 1.39-1.39h14.874a1.384 1.384 0 0 1 1.39 1.39v8.44zm1.441-2.573-.926.129v-6a1.9 1.9 0 0 0-1.9-1.9H10.439a1.29 1.29 0 0 1 .283-1 1.356 1.356 0 0 1 .926-.515l14.745-1.827a1.385 1.385 0 0 1 1.544 1.209l1.029 8.363a1.384 1.384 0 0 1-1.183 1.542z" style="fill:#17457a;stroke:#17457a;stroke-width:.5px"/>
    </g>
</svg>
