<svg xmlns="http://www.w3.org/2000/svg" width="15.666" height="17.913" viewBox="0 0 15.666 17.913">
    <path d="m10.118 1.508-.383.292c-2.05 1.546-4.479 3.138-6.774 3.31l-.639.043v.641c0 3.994.183 6.679 1.272 8.779s3.06 3.44 6.268 4.737l.267.111.264-.116c3.11-1.34 5.09-2.488 6.227-4.532S17.988 10 17.988 5.536v-.593l-.588-.086c-2.588-.4-4.5-1.567-6.882-3.091zm.054 1.652a18.873 18.873 0 0 0 6.413 2.867c-.025 4.043-.3 6.51-1.172 8.078a5.2 5.2 0 0 1-.315.488L6.065 5.56a19.479 19.479 0 0 0 4.106-2.4zM4.631 6.078l9.531 9.531a16.083 16.083 0 0 1-4.044 2.291c-2.872-1.2-4.442-2.306-5.3-3.961C3.97 12.307 3.745 9.9 3.723 6.274c.306-.05.61-.117.908-.196z" transform="translate(-2.322 -1.508)" style="fill:#17457a"/>
</svg>
