<svg xmlns="http://www.w3.org/2000/svg" width="17.635" height="19" viewBox="0 0 17.635 19">
    <g data-name="Group 52630">
        <path data-name="Path 56842" d="M18.13 9.238a.688.688 0 0 1-.688-.688V6.605c0-2.754-2.544-4.957-5.672-4.957S6.1 3.879 6.1 6.605v1.944a.688.688 0 1 1-1.377 0V6.605C4.72 3.1 7.887.25 11.769.25s7.05 2.85 7.05 6.355v1.944a.683.683 0 0 1-.688.688z" transform="translate(-2.941 -.25)" style="fill:#17457a"/>
        <path data-name="Path 56843" d="M14.818 21.892a.688.688 0 0 1-.688-.688v-6.538a.688.688 0 0 1 .688-.666 4.151 4.151 0 0 1 4.307 3.96 4.129 4.129 0 0 1-4.307 3.932zm.688-6.466v5.017a2.677 2.677 0 0 0 2.236-2.506 2.677 2.677 0 0 0-2.236-2.511zM5.8 21.892a4.147 4.147 0 0 1-4.31-3.954A4.134 4.134 0 0 1 5.8 14a.688.688 0 0 1 .688.688V21.2a.688.688 0 0 1-.688.692zm-.688-6.466a2.677 2.677 0 0 0-2.236 2.511 2.677 2.677 0 0 0 2.236 2.506z" transform="translate(-1.49 -6.428)" style="fill:#17457a"/>
        <path data-name="Path 56844" d="M22.858 29.372h-2.28a.688.688 0 1 1 0-1.377h2.28a1.344 1.344 0 0 0 1.342-1.344v-.3a.688.688 0 1 1 1.377 0v.3a2.721 2.721 0 0 1-2.721 2.721z" transform="translate(-9.757 -11.666)" style="fill:#17457a"/>
        <path data-name="Path 56845" d="M16.354 31.619h-1.36a1.883 1.883 0 0 1-1.883-1.883v-.077a1.883 1.883 0 0 1 1.883-1.878h1.36a1.878 1.878 0 0 1 1.878 1.878v.077a1.883 1.883 0 0 1-1.878 1.883zM15 29.157a.507.507 0 0 0-.507.5v.077a.507.507 0 0 0 .507.507h1.349a.507.507 0 0 0 .5-.507v-.077a.5.5 0 0 0-.5-.5z" transform="translate(-6.711 -12.619)" style="fill:#17457a"/>
    </g>
</svg>
