<svg xmlns="http://www.w3.org/2000/svg" width="12.858" height="16.767" viewBox="0 0 12.858 16.767">
    <path data-name="Path 58519" d="m18.443 9.311-.27 8.174a2.692 2.692 0 0 1-2.7 2.6h-5.132a2.692 2.692 0 0 1-2.7-2.6l-.27-8.177a.676.676 0 0 1 1.35-.045l.27 8.176a1.35 1.35 0 0 0 1.35 1.3h5.131a1.35 1.35 0 0 0 1.35-1.3l.27-8.173a.676.676 0 0 1 1.35.045zm.893-2.72a.675.675 0 0 1-.675.675H7.153a.675.675 0 0 1 0-1.35h2.093a.861.861 0 0 0 .859-.775 2.019 2.019 0 0 1 2.015-1.819h1.573a2.019 2.019 0 0 1 2.015 1.819.861.861 0 0 0 .859.775h2.093a.675.675 0 0 1 .675.675zm-8.058-.675h3.26a2.228 2.228 0 0 1-.172-.637.675.675 0 0 0-.671-.608h-1.574a.675.675 0 0 0-.671.608 2.228 2.228 0 0 1-.173.637zm.68 10.229V10.4a.675.675 0 0 0-1.35 0v5.751a.675.675 0 0 0 1.35 0zm3.25 0V10.4a.675.675 0 0 0-1.35 0v5.751a.675.675 0 0 0 1.35 0z" transform="translate(-6.478 -3.322)" style="fill:#d40000"/>
</svg>
