<svg xmlns="http://www.w3.org/2000/svg" width="27" height="26.772" viewBox="0 0 27 26.772">
    <g data-name="46">
        <path data-name="Path 58551" d="M15.365 18.573h-.149l-3.9-.432a1.35 1.35 0 0 1-1.188-1.188l-.446-3.9a1.35 1.35 0 0 1 .432-1.107l9.45-9.382a1.35 1.35 0 0 1 1.9 0L25.8 6.9a1.35 1.35 0 0 1 0 1.9l-9.382 9.45a1.35 1.35 0 0 1-1.053.323zm-2.7-3.011 2.174.243L22.8 7.84l-2.39-2.417-7.965 7.965z" transform="translate(.687 -2.169)" style="fill:#40403f"/>
        <path data-name="Path 58552" d="M24.95 25.5H15.5a1.35 1.35 0 1 1 0-2.7h9.45a1.35 1.35 0 1 0 0-2.7H6.05a4.05 4.05 0 0 1 0-8.1h2.7a1.35 1.35 0 1 1 0 2.7h-2.7a1.35 1.35 0 0 0 0 2.7h18.9a4.05 4.05 0 1 1 0 8.1z" transform="translate(-2 1.272)" style="fill:#40403f"/>
    </g>
</svg>
