<svg xmlns="http://www.w3.org/2000/svg" width="62.431" height="62.431" viewBox="0 0 62.431 62.431">
    <g data-name="Group 52937">
        <path data-name="Path 58492" d="M30.094 2a3.122 3.122 0 0 1 3.122 3.122v.217c11.557 1.615 20.476 12.083 20.476 24.755v3.353A32.812 32.812 0 0 0 55.8 45.04l2.172 5.745a3.107 3.107 0 0 1-2.739 4.281H4.953a3.107 3.107 0 0 1-2.739-4.281l2.172-5.745A32.813 32.813 0 0 0 6.5 33.447v-3.353c0-12.672 8.919-23.139 20.477-24.756v-.216A3.122 3.122 0 0 1 30.094 2zm-9.365 21.851a3.122 3.122 0 0 1 3.122-3.122h12.486a3.122 3.122 0 0 1 2.437 5.071l-8.429 10.537h5.991a3.122 3.122 0 0 1 0 6.243H23.851a3.122 3.122 0 0 1-2.438-5.072l8.429-10.536h-5.991a3.122 3.122 0 0 1-3.122-3.121z" transform="translate(-2 -2)" style="fill-rule:evenodd;fill:#17457a"/>
        <path data-name="Path 58493" d="M12.122 58.188a3.122 3.122 0 1 0 0 6.243h6.243a3.122 3.122 0 1 0 0-6.243zM40.215 2a3.122 3.122 0 0 0 0 6.243h.41l-3.008 4.512a3.121 3.121 0 0 0 2.6 4.853h6.243a3.122 3.122 0 0 0 0-6.243h-.41l3.008-4.512A3.122 3.122 0 0 0 46.458 2z" transform="translate(12.851 -2)" style="fill:#17457a"/>
    </g>
</svg>
