<svg xmlns="http://www.w3.org/2000/svg" width="24" height="17" viewBox="0 0 24 17">
    <g data-name="Group 52939">
        <path data-name="Path 58494" d="M17 11H4a1 1 0 0 1 0-2h13a1 1 0 0 1 0 2zm9 0h-4a1 1 0 0 1 0-2h4a1 1 0 0 1 0 2z" style="fill:#a6a6a6" transform="translate(-3 -6.5)"/>
        <path data-name="Path 58495" d="M19.5 13.5A3.5 3.5 0 1 1 23 10a3.5 3.5 0 0 1-3.5 3.5zm0-5A1.5 1.5 0 1 0 21 10a1.5 1.5 0 0 0-1.5-1.5zM26 21H13a1 1 0 0 1 0-2h13a1 1 0 0 1 0 2zM8 21H4a1 1 0 0 1 0-2h4a1 1 0 0 1 0 2z" style="fill:#a6a6a6" transform="translate(-3 -6.5)"/>
        <path data-name="Path 58496" d="M10.5 23.5A3.5 3.5 0 1 1 14 20a3.5 3.5 0 0 1-3.5 3.5zm0-5A1.5 1.5 0 1 0 12 20a1.5 1.5 0 0 0-1.5-1.5z" style="fill:#a6a6a6" transform="translate(-3 -6.5)"/>
    </g>
</svg>
