<svg xmlns="http://www.w3.org/2000/svg" width="18.565" height="19.599" viewBox="0 0 18.565 19.599">
    <path data-name="Path 58383" d="M6.064 17.158v-2.795a1.3 1.3 0 0 1 1.3-1.292h2.628a1.306 1.306 0 0 1 .92.378 1.287 1.287 0 0 1 .381.913v2.795a1.109 1.109 0 0 0 .325.792 1.125 1.125 0 0 0 .8.329h1.792a3.163 3.163 0 0 0 2.233-.913 3.116 3.116 0 0 0 .926-2.215V7.19a2.26 2.26 0 0 0-.818-1.739L10.45.618a2.831 2.831 0 0 0-3.609.065L.884 5.451A2.261 2.261 0 0 0 0 7.19v7.953a3.147 3.147 0 0 0 3.159 3.136H4.91a1.125 1.125 0 0 0 1.129-1.113z" transform="translate(.6 .719)" style="fill:none;stroke:#a6a6a6;stroke-width:1.2px"/>
</svg>
