<svg xmlns="http://www.w3.org/2000/svg" width="18.18" height="18.18" viewBox="0 0 18.18 18.18">
    <g data-name="Group 52637">
        <path data-name="Path 56848" d="M.275 17.7a.276.276 0 0 1-.266-.349l1.13-4.14a8.832 8.832 0 1 1 3.4 3.381l-4.194 1.1a.247.247 0 0 1-.07 0zm4.3-1.685a.276.276 0 0 1 .138.036 8.28 8.28 0 1 0-3.033-3.024.276.276 0 0 1 .028.211L.673 17.033l3.84-1.012a.306.306 0 0 1 .064-.008z" transform="translate(.264 .212)" style="fill:#17457a;stroke:#17457a;stroke-width:.5px"/>
        <path data-name="Path 56849" d="M52.794 23.588a1.794 1.794 0 1 1 1.794-1.794 1.794 1.794 0 0 1-1.794 1.794zm0-3.036a1.242 1.242 0 1 0 1.242 1.242 1.242 1.242 0 0 0-1.242-1.242zm0 11.592A1.794 1.794 0 0 1 51 30.35v-3.726a1.794 1.794 0 1 1 3.588 0v3.726a1.794 1.794 0 0 1-1.794 1.794zm0-6.762a1.242 1.242 0 0 0-1.242 1.242v3.726a1.242 1.242 0 1 0 2.484 0v-3.726a1.242 1.242 0 0 0-1.242-1.242z" transform="translate(-43.699 -16.994)" style="fill:#17457a;stroke:#17457a;stroke-width:.5px"/>
    </g>
</svg>
