<svg xmlns="http://www.w3.org/2000/svg" width="16.016" height="16" viewBox="0 0 16.016 16">
    <path data-name="Path 56841" d="M17.581 7.333v-.04a8.023 8.023 0 0 0-15.068 0v.04a7.911 7.911 0 0 0 0 5.392v.04a8.023 8.023 0 0 0 15.068 0v-.04a7.911 7.911 0 0 0 0-5.392zm-13.76 4.3a6.274 6.274 0 0 1 0-3.209h1.493a13.423 13.423 0 0 0 0 3.209zm.658 1.6H5.6a9.749 9.749 0 0 0 .8 2.067 6.419 6.419 0 0 1-1.926-2.062zM5.6 6.82H4.479a6.419 6.419 0 0 1 1.9-2.062A9.748 9.748 0 0 0 5.6 6.82zm3.627 9.387a5.087 5.087 0 0 1-1.95-2.969h1.95zm0-4.573H6.934a11.522 11.522 0 0 1 0-3.209h2.295zm0-4.814H7.279a5.087 5.087 0 0 1 1.95-2.969zm6.355 0H14.46a9.749 9.749 0 0 0-.8-2.062 6.419 6.419 0 0 1 1.924 2.062zm-4.75-2.969a5.087 5.087 0 0 1 1.95 2.969h-1.95zm0 12.356v-2.968h1.95a5.087 5.087 0 0 1-1.948 2.968zm2.295-4.573h-2.293V8.425h2.295a11.522 11.522 0 0 1 0 3.209zm.554 3.667a9.749 9.749 0 0 0 .8-2.062h1.123a6.419 6.419 0 0 1-1.922 2.061zm2.559-3.667h-1.491a12.966 12.966 0 0 0 .1-1.6 13.062 13.062 0 0 0-.1-1.6h1.492a6.274 6.274 0 0 1 .001 3.2z" transform="translate(-2.039 -2.029)" style="fill:#17457a"/>
</svg>
