<svg xmlns="http://www.w3.org/2000/svg" width="28.421" height="25.566" viewBox="0 0 28.421 25.566">
    <g data-name="Group 52934">
        <path data-name="Path 58489" d="m225.386 177.489-1.3-3.9a.862.862 0 0 1 .057-.669 10.157 10.157 0 0 0-5.774-14.269 12.117 12.117 0 0 1 .714 6.882 11.909 11.909 0 0 1-9.562 9.468 12.44 12.44 0 0 1-1.88.182 10.149 10.149 0 0 0 12.06 2.16.861.861 0 0 1 .665-.055l3.91 1.3a.876.876 0 0 0 1.11-1.099z" transform="translate(-197.011 -153.078)" style="fill:#17457a"/>
        <path data-name="Path 58490" d="M72.376 83.474a10.155 10.155 0 0 0-7.088 14.615.862.862 0 0 1 .057.669l-1.3 3.9a.876.876 0 0 0 1.108 1.108l3.91-1.3a.861.861 0 0 1 .665.055 10.164 10.164 0 1 0 2.646-19.039zm2.586 13.14h-5.05a.9.9 0 0 1 0-1.8h5.05a.9.9 0 0 1 0 1.8zm3.607-3.607h-8.658a.9.9 0 0 1 0-1.8h8.658a.9.9 0 0 1 0 1.8z" transform="translate(-64 -83.293)" style="fill:#17457a"/>
    </g>
</svg>
