<svg xmlns="http://www.w3.org/2000/svg" width="14.186" height="18.915" viewBox="0 0 14.186 18.915">
    <g data-name="01 align center">
        <path data-name="Path 8353" d="M17.186 21.881H15.61v-3.974a2.333 2.333 0 0 0-2.33-2.33H6.907a2.333 2.333 0 0 0-2.33 2.33v3.974H3v-3.974A3.911 3.911 0 0 1 6.907 14h6.373a3.911 3.911 0 0 1 3.907 3.907z" transform="translate(-3 -2.966)" style="fill:#a6a6a6"/>
        <path data-name="Path 8354" d="M10.729 9.457a4.729 4.729 0 1 1 4.729-4.729 4.729 4.729 0 0 1-4.729 4.729zm0-7.881a3.152 3.152 0 1 0 3.152 3.152 3.152 3.152 0 0 0-3.152-3.152z" transform="translate(-3.636)" style="fill:#a6a6a6"/>
    </g>
</svg>
