<svg xmlns="http://www.w3.org/2000/svg" width="26.118" height="26.118" viewBox="0 0 26.118 26.118">
    <g data-name="Group 53003">
        <path data-name="Path 58505" d="M33.681 50.276a12.049 12.049 0 1 1 4.219 4.216h0l-4.163 1.189a1 1 0 0 1-1.242-1.242l1.189-4.163z" transform="translate(-30.978 -31.077)" style="fill:none;stroke:#40403f;stroke-linecap:round;stroke-linejoin:round;stroke-width:2px"/>
        <path data-name="Path 58506" d="M82.059 89.561A10.045 10.045 0 0 1 72 79.5a3.513 3.513 0 0 1 3.516-3.5h0a.865.865 0 0 1 .751.436L77.735 79a1 1 0 0 1-.011 1.015l-1.179 1.965h0a6.05 6.05 0 0 0 3.03 3.03h0l1.965-1.179a1 1 0 0 1 1.015-.011l2.569 1.468a.865.865 0 0 1 .436.751h0a3.526 3.526 0 0 1-3.5 3.516z" transform="translate(-65.961 -69.482)" style="fill:none;stroke:#40403f;stroke-linecap:round;stroke-linejoin:round;stroke-width:2px"/>
    </g>
</svg>
